<svg xmlns="http://www.w3.org/2000/svg" xmlns:xlink="http://www.w3.org/1999/xlink" width="1000" zoomAndPan="magnify" viewBox="0 0 750 607.499987" height="810" preserveAspectRatio="xMidYMid meet" version="1.0"><path fill="#ffffff" d="M 329.085938 233.640625 C 324.4375 259 328.8125 284.503906 340.082031 306.769531 L 667.644531 306.769531 C 686.945312 306.769531 691.726562 301.976562 696.664062 282.675781 L 703.007812 215.042969 C 703.570312 171.230469 682.15625 131.492188 644.257812 109.800781 C 600.433594 85.289062 549.4375 87.390625 510.550781 115.011719 C 492.515625 127.835938 470.121094 141.636719 445.035156 148.964844 C 396.429688 162.351562 336.699219 187.996094 329.085938 233.640625 Z M 605.929688 189.539062 C 611.992188 183.480469 621.574219 183.480469 627.632812 189.265625 C 633.40625 195.324219 633.679688 205.183594 627.632812 210.957031 C 621.851562 217.015625 611.992188 217.015625 605.929688 210.957031 C 600.160156 205.183594 600.160156 195.324219 605.929688 189.539062 Z M 587.046875 255.902344 C 593.109375 261.964844 593.109375 271.535156 587.335938 277.597656 C 581.277344 283.65625 571.417969 283.65625 565.632812 277.597656 C 559.585938 271.824219 559.585938 261.964844 565.632812 255.902344 C 571.417969 250.121094 581.277344 250.121094 587.046875 255.902344 Z M 538.027344 197.152344 C 544.085938 191.367188 553.65625 191.367188 559.714844 197.152344 C 565.5 202.925781 565.5 212.785156 559.714844 218.84375 C 553.65625 224.628906 544.085938 224.628906 538.027344 218.84375 C 532.253906 212.785156 532.253906 203.355469 538.027344 197.152344 Z M 465.601562 277.035156 C 471.660156 282.804688 471.660156 292.679688 465.601562 298.449219 C 459.832031 304.511719 449.96875 304.511719 444.199219 298.449219 C 438.140625 292.679688 438.140625 282.804688 443.910156 277.035156 C 449.96875 270.976562 459.6875 270.976562 465.601562 277.035156 Z M 465.601562 277.035156 " fill-opacity="1" fill-rule="nonzero"/><path fill="#dba542" d="M 34.636719 306.769531 L 304.011719 306.769531 C 299.78125 295.070312 295.132812 284.359375 291.1875 275.910156 C 280.195312 252.089844 276.25 226.3125 274.003906 204.046875 C 269.355469 156.289062 237.648438 115.859375 190.730469 99.367188 C 142.125 81.90625 88.871094 98.386719 54.917969 141.636719 C 36.882812 165.171875 29.558594 189.121094 29.84375 215.042969 L 29.84375 239.136719 C 29.84375 292.246094 29.84375 292.246094 34.636719 306.769531 Z M 179.460938 220.109375 C 188.0625 221.101562 194.109375 228.429688 193.550781 236.601562 C 192.988281 245.195312 185.660156 251.253906 177.070312 250.695312 C 168.75 250.121094 162.417969 242.792969 162.980469 234.199219 C 163.828125 225.894531 171.152344 219.546875 179.460938 220.109375 Z M 141.144531 163.472656 C 149.449219 164.035156 155.796875 171.359375 155.234375 179.964844 C 154.671875 188.273438 147.347656 194.617188 138.742188 194.042969 C 130.148438 193.484375 124.089844 186.15625 124.664062 177.5625 C 125.226562 168.972656 132.550781 162.910156 141.144531 163.472656 Z M 117.050781 237.871094 C 125.355469 238.429688 131.703125 245.757812 131.140625 254.0625 C 130.578125 262.667969 122.824219 268.726562 114.660156 268.152344 C 106.054688 267.59375 100.007812 260.265625 100.570312 251.671875 C 101.132812 243.367188 108.457031 236.878906 117.050781 237.871094 Z M 117.050781 237.871094 " fill-opacity="1" fill-rule="nonzero"/><path fill="#ffffff" d="M 305.136719 207.859375 C 321.761719 168.972656 365.714844 139.25 436.585938 119.375 C 445.464844 116.839844 453.914062 113.039062 462.089844 108.808594 C 454.761719 91.621094 444.328125 75.976562 430.527344 63.441406 C 405.585938 40.613281 373.746094 29.34375 340.785156 31.890625 C 305.136719 34.84375 278.222656 69.929688 259.484375 107.398438 C 284.570312 132.195312 300.628906 164.882812 304.144531 201.371094 C 304.574219 203.210938 304.847656 205.601562 305.136719 207.859375 Z M 305.136719 207.859375 " fill-opacity="1" fill-rule="nonzero"/><path fill="#ffffff" d="M 140.714844 371.292969 L 140.714844 398.625 C 140.714844 432.292969 124.519531 450.613281 91.402344 450.613281 L 75.773438 450.613281 L 75.773438 529.648438 L 42.65625 529.648438 L 42.65625 319.304688 L 91.402344 319.304688 C 124.378906 319.304688 140.714844 337.613281 140.714844 371.292969 Z M 75.773438 349.316406 L 75.773438 420.460938 L 91.402344 420.460938 C 101.980469 420.460938 107.609375 415.667969 107.609375 400.597656 L 107.609375 369.035156 C 107.609375 353.964844 101.835938 349.171875 91.402344 349.171875 L 75.773438 349.171875 Z M 75.773438 349.316406 " fill-opacity="1" fill-rule="nonzero"/><path fill="#ffffff" d="M 259.066406 529.648438 L 225.675781 529.648438 L 219.902344 491.476562 L 179.328125 491.476562 L 173.542969 529.648438 L 143.390625 529.648438 L 177.070312 319.304688 L 225.398438 319.304688 Z M 183.691406 462.863281 L 215.527344 462.863281 L 199.894531 356.496094 L 199.332031 356.496094 Z M 183.691406 462.863281 " fill-opacity="1" fill-rule="nonzero"/><path fill="#ffffff" d="M 253.4375 319.304688 L 355.570312 319.304688 L 355.570312 349.316406 L 321.054688 349.316406 L 321.054688 529.648438 L 287.949219 529.648438 L 287.949219 349.316406 L 253.4375 349.316406 Z M 253.4375 319.304688 " fill-opacity="1" fill-rule="nonzero"/><path fill="#ffffff" d="M 465.472656 529.648438 L 432.078125 529.648438 L 426.296875 491.476562 L 385.722656 491.476562 L 379.949219 529.648438 L 349.652344 529.648438 L 383.332031 319.304688 L 431.648438 319.304688 Z M 390.097656 462.863281 L 421.933594 462.863281 L 406.289062 356.496094 L 405.726562 356.496094 Z M 390.097656 462.863281 " fill-opacity="1" fill-rule="nonzero"/><path fill="#dba542" d="M 530.136719 412.429688 L 576.339844 412.429688 L 576.339844 479.070312 C 576.339844 512.75 559.585938 531.90625 527.03125 531.90625 C 494.632812 531.90625 477.722656 512.75 477.722656 479.070312 L 477.722656 369.738281 C 477.722656 336.074219 494.488281 316.902344 527.03125 316.902344 C 559.441406 316.902344 576.339844 336.074219 576.339844 369.738281 L 576.339844 390.164062 L 545.066406 390.164062 L 545.066406 367.625 C 545.066406 352.554688 538.445312 346.914062 527.878906 346.914062 C 517.316406 346.914062 510.695312 352.699219 510.695312 367.625 L 510.695312 481.183594 C 510.695312 496.253906 517.316406 501.609375 527.878906 501.609375 C 538.445312 501.609375 545.066406 496.253906 545.066406 481.183594 L 545.066406 442.4375 L 529.996094 442.4375 L 529.996094 412.429688 Z M 530.136719 412.429688 " fill-opacity="1" fill-rule="nonzero"/><path fill="#dba542" d="M 595.078125 369.738281 C 595.078125 336.074219 612.839844 316.902344 645.238281 316.902344 C 677.648438 316.902344 695.398438 336.074219 695.398438 369.738281 L 695.398438 479.070312 C 695.398438 512.75 677.648438 531.90625 645.238281 531.90625 C 612.839844 531.90625 595.078125 512.75 595.078125 479.070312 Z M 628.050781 481.183594 C 628.050781 496.253906 634.671875 501.898438 645.238281 501.898438 C 655.804688 501.898438 662.421875 496.125 662.421875 481.183594 L 662.421875 367.625 C 662.421875 352.554688 655.804688 346.914062 645.238281 346.914062 C 634.671875 346.914062 628.050781 352.699219 628.050781 367.625 Z M 628.050781 481.183594 " fill-opacity="1" fill-rule="nonzero"/><path fill="#f2bb68" d="M 59.984375 162.492188 C 59.984375 162.492188 29.976562 222.65625 48.011719 288.734375 C 48.011719 288.734375 54.070312 306.769531 66.042969 300.710938 C 78.019531 294.648438 66.042969 258.582031 66.042969 258.582031 C 66.042969 258.582031 41.960938 216.597656 59.984375 162.492188 Z M 59.984375 162.492188 " fill-opacity="1" fill-rule="nonzero"/><path fill="#c48b2d" d="M 266.808594 241.253906 C 266.808594 241.253906 265.265625 174.039062 218.347656 124.023438 C 218.347656 124.023438 204.542969 110.921875 196.789062 121.773438 C 189.042969 132.757812 216.519531 158.96875 216.519531 158.96875 C 216.519531 158.96875 257.378906 185.035156 266.808594 241.253906 Z M 266.808594 241.253906 " fill-opacity="1" fill-rule="nonzero"/></svg>