<svg xmlns="http://www.w3.org/2000/svg" xmlns:xlink="http://www.w3.org/1999/xlink" width="1920" zoomAndPan="magnify" viewBox="0 0 1440 809.999993" height="1080" preserveAspectRatio="xMidYMid meet" version="1.0"><path fill="#4b3932" d="M 706.402344 386.949219 C 704.882812 395.242188 706.308594 403.582031 709.996094 410.863281 L 817.128906 410.863281 C 823.441406 410.863281 825.007812 409.296875 826.621094 402.984375 L 828.695312 380.867188 C 828.878906 366.535156 821.875 353.542969 809.480469 346.445312 C 795.148438 338.425781 778.46875 339.117188 765.75 348.148438 C 759.851562 352.34375 752.527344 356.859375 744.324219 359.253906 C 728.425781 363.632812 708.890625 372.019531 706.402344 386.949219 Z M 796.945312 372.527344 C 798.925781 370.542969 802.058594 370.542969 804.042969 372.433594 C 805.929688 374.414062 806.023438 377.640625 804.042969 379.53125 C 802.152344 381.511719 798.925781 381.511719 796.945312 379.53125 C 795.054688 377.640625 795.054688 374.414062 796.945312 372.527344 Z M 790.769531 394.226562 C 792.753906 396.210938 792.753906 399.34375 790.863281 401.324219 C 788.882812 403.304688 785.65625 403.304688 783.765625 401.324219 C 781.785156 399.433594 781.785156 396.210938 783.765625 394.226562 C 785.65625 392.339844 788.882812 392.339844 790.769531 394.226562 Z M 774.734375 375.015625 C 776.71875 373.125 779.851562 373.125 781.832031 375.015625 C 783.722656 376.902344 783.722656 380.128906 781.832031 382.109375 C 779.851562 384 776.71875 384 774.734375 382.109375 C 772.847656 380.128906 772.847656 377.042969 774.734375 375.015625 Z M 751.050781 401.140625 C 753.035156 403.027344 753.035156 406.253906 751.050781 408.144531 C 749.164062 410.125 745.9375 410.125 744.046875 408.144531 C 742.066406 406.253906 742.066406 403.027344 743.957031 401.140625 C 745.9375 399.160156 749.117188 399.160156 751.050781 401.140625 Z M 751.050781 401.140625 " fill-opacity="1" fill-rule="nonzero"/><path fill="#dba542" d="M 610.097656 410.863281 L 698.199219 410.863281 C 696.816406 407.039062 695.296875 403.535156 694.007812 400.769531 C 690.414062 392.984375 689.121094 384.550781 688.386719 377.273438 C 686.863281 361.652344 676.496094 348.425781 661.152344 343.035156 C 645.257812 337.320312 627.839844 342.714844 616.734375 356.859375 C 610.835938 364.554688 608.441406 372.386719 608.53125 380.867188 L 608.53125 388.746094 C 608.53125 406.117188 608.53125 406.117188 610.097656 410.863281 Z M 657.46875 382.523438 C 660.277344 382.847656 662.257812 385.242188 662.074219 387.914062 C 661.890625 390.726562 659.496094 392.707031 656.683594 392.523438 C 653.964844 392.339844 651.890625 389.941406 652.074219 387.132812 C 652.351562 384.414062 654.75 382.339844 657.46875 382.523438 Z M 644.933594 364 C 647.652344 364.183594 649.726562 366.582031 649.542969 369.390625 C 649.359375 372.109375 646.960938 374.183594 644.152344 374 C 641.339844 373.816406 639.359375 371.417969 639.542969 368.609375 C 639.726562 365.796875 642.125 363.816406 644.933594 364 Z M 637.054688 388.332031 C 639.773438 388.515625 641.847656 390.910156 641.664062 393.628906 C 641.476562 396.441406 638.945312 398.421875 636.269531 398.238281 C 633.460938 398.054688 631.480469 395.65625 631.664062 392.847656 C 631.847656 390.128906 634.242188 388.007812 637.054688 388.332031 Z M 637.054688 388.332031 " fill-opacity="1" fill-rule="nonzero"/><path fill="#4b3932" d="M 698.570312 378.515625 C 704.007812 365.796875 718.382812 356.074219 741.558594 349.578125 C 744.460938 348.75 747.226562 347.503906 749.898438 346.121094 C 747.503906 340.5 744.09375 335.386719 739.578125 331.285156 C 731.421875 323.820312 721.007812 320.132812 710.226562 320.964844 C 698.570312 321.933594 689.769531 333.40625 683.640625 345.660156 C 691.839844 353.773438 697.09375 364.460938 698.246094 376.394531 C 698.382812 376.996094 698.476562 377.777344 698.570312 378.515625 Z M 698.570312 378.515625 " fill-opacity="1" fill-rule="nonzero"/><path fill="#4b3932" d="M 644.796875 431.964844 L 644.796875 440.90625 C 644.796875 451.917969 639.496094 457.910156 628.667969 457.910156 L 623.554688 457.910156 L 623.554688 483.757812 L 612.726562 483.757812 L 612.726562 414.964844 L 628.667969 414.964844 C 639.449219 414.964844 644.796875 420.953125 644.796875 431.964844 Z M 623.554688 424.777344 L 623.554688 448.046875 L 628.667969 448.046875 C 632.125 448.046875 633.96875 446.480469 633.96875 441.550781 L 633.96875 431.230469 C 633.96875 426.296875 632.078125 424.730469 628.667969 424.730469 L 623.554688 424.730469 Z M 623.554688 424.777344 " fill-opacity="1" fill-rule="nonzero"/><path fill="#4b3932" d="M 683.5 483.757812 L 672.582031 483.757812 L 670.691406 471.269531 L 657.421875 471.269531 L 655.53125 483.757812 L 645.671875 483.757812 L 656.683594 414.964844 L 672.488281 414.964844 Z M 658.851562 461.917969 L 669.261719 461.917969 L 664.148438 427.128906 L 663.964844 427.128906 Z M 658.851562 461.917969 " fill-opacity="1" fill-rule="nonzero"/><path fill="#4b3932" d="M 681.660156 414.964844 L 715.066406 414.964844 L 715.066406 424.777344 L 703.777344 424.777344 L 703.777344 483.757812 L 692.949219 483.757812 L 692.949219 424.777344 L 681.660156 424.777344 Z M 681.660156 414.964844 " fill-opacity="1" fill-rule="nonzero"/><path fill="#4b3932" d="M 751.003906 483.757812 L 740.085938 483.757812 L 738.195312 471.269531 L 724.925781 471.269531 L 723.035156 483.757812 L 713.128906 483.757812 L 724.140625 414.964844 L 739.945312 414.964844 Z M 726.355469 461.917969 L 736.769531 461.917969 L 731.652344 427.128906 L 731.46875 427.128906 Z M 726.355469 461.917969 " fill-opacity="1" fill-rule="nonzero"/><path fill="#dba542" d="M 772.15625 445.421875 L 787.269531 445.421875 L 787.269531 467.214844 C 787.269531 478.230469 781.785156 484.496094 771.140625 484.496094 C 760.542969 484.496094 755.015625 478.230469 755.015625 467.214844 L 755.015625 431.460938 C 755.015625 420.445312 760.496094 414.179688 771.140625 414.179688 C 781.738281 414.179688 787.269531 420.445312 787.269531 431.460938 L 787.269531 438.140625 L 777.039062 438.140625 L 777.039062 430.769531 C 777.039062 425.839844 774.875 423.996094 771.417969 423.996094 C 767.960938 423.996094 765.796875 425.882812 765.796875 430.769531 L 765.796875 467.90625 C 765.796875 472.835938 767.960938 474.589844 771.417969 474.589844 C 774.875 474.589844 777.039062 472.835938 777.039062 467.90625 L 777.039062 455.234375 L 772.109375 455.234375 L 772.109375 445.421875 Z M 772.15625 445.421875 " fill-opacity="1" fill-rule="nonzero"/><path fill="#dba542" d="M 793.398438 431.460938 C 793.398438 420.445312 799.203125 414.179688 809.800781 414.179688 C 820.398438 414.179688 826.207031 420.445312 826.207031 431.460938 L 826.207031 467.214844 C 826.207031 478.230469 820.398438 484.496094 809.800781 484.496094 C 799.203125 484.496094 793.398438 478.230469 793.398438 467.214844 Z M 804.179688 467.90625 C 804.179688 472.835938 806.34375 474.679688 809.800781 474.679688 C 813.257812 474.679688 815.421875 472.792969 815.421875 467.90625 L 815.421875 430.769531 C 815.421875 425.839844 813.257812 423.996094 809.800781 423.996094 C 806.34375 423.996094 804.179688 425.882812 804.179688 430.769531 Z M 804.179688 467.90625 " fill-opacity="1" fill-rule="nonzero"/><path fill="#f2bb68" d="M 618.394531 363.679688 C 618.394531 363.679688 608.578125 383.355469 614.476562 404.964844 C 614.476562 404.964844 616.457031 410.863281 620.375 408.882812 C 624.292969 406.898438 620.375 395.105469 620.375 395.105469 C 620.375 395.105469 612.496094 381.371094 618.394531 363.679688 Z M 618.394531 363.679688 " fill-opacity="1" fill-rule="nonzero"/><path fill="#c48b2d" d="M 686.035156 389.4375 C 686.035156 389.4375 685.527344 367.457031 670.183594 351.097656 C 670.183594 351.097656 665.667969 346.8125 663.136719 350.363281 C 660.601562 353.957031 669.585938 362.527344 669.585938 362.527344 C 669.585938 362.527344 682.949219 371.050781 686.035156 389.4375 Z M 686.035156 389.4375 " fill-opacity="1" fill-rule="nonzero"/></svg>