<?xml version="1.0" encoding="UTF-8"?> <!-- Generator: Adobe Illustrator 23.1.0, SVG Export Plug-In . SVG Version: 6.00 Build 0) --> <svg xmlns="http://www.w3.org/2000/svg" xmlns:xlink="http://www.w3.org/1999/xlink" version="1.1" id="Livello_1" x="0px" y="0px" viewBox="0 0 500 500" style="enable-background:new 0 0 500 500;" xml:space="preserve"> <style type="text/css"> .st0{fill:#FFFFFF;} .st1{fill:#DBA542;} .st2{fill:#F2BB68;} .st3{fill:#C48B2D;} </style> <g> <path class="st0" d="M220.5,218.6c-3.3,18-0.2,36.1,7.8,51.9h214.2l18.3,0c13.7,0,17.1-3.4,20.6-17.1l4.5-48 c0.4-31.1-14.8-59.3-41.7-74.7c-31.1-17.4-67.3-15.9-94.9,3.7c-12.8,9.1-28.7,18.9-46.5,24.1C268.3,168,225.9,186.2,220.5,218.6z M417,187.3c4.3-4.3,11.1-4.3,15.4-0.2c4.1,4.3,4.3,11.3,0,15.4c-4.1,4.3-11.1,4.3-15.4,0C412.9,198.4,412.9,191.4,417,187.3z M403.6,234.4c4.3,4.3,4.3,11.1,0.2,15.4c-4.3,4.3-11.3,4.3-15.4,0c-4.3-4.1-4.3-11.1,0-15.4C392.5,230.3,399.5,230.3,403.6,234.4z M368.8,192.7c4.3-4.1,11.1-4.1,15.4,0c4.1,4.1,4.1,11.1,0,15.4c-4.3,4.1-11.1,4.1-15.4,0C364.7,203.8,364.7,197.1,368.8,192.7z M317.4,249.4c4.3,4.1,4.3,11.1,0,15.2c-4.1,4.3-11.1,4.3-15.2,0c-4.3-4.1-4.3-11.1-0.2-15.2C306.3,245.1,313.2,245.1,317.4,249.4z "></path> <path class="st1" d="M11.5,270.5l40,0h151.2c-3-8.3-6.3-15.9-9.1-21.9c-7.8-16.9-10.6-35.2-12.2-51c-3.3-33.9-25.8-62.6-59.1-74.3 c-34.5-12.4-72.3-0.7-96.4,30c-12.8,16.7-18,33.7-17.8,52.1l0,17.1C8.1,260.2,8.1,260.2,11.5,270.5z M114.3,209 c6.1,0.7,10.4,5.9,10,11.7c-0.4,6.1-5.6,10.4-11.7,10c-5.9-0.4-10.4-5.6-10-11.7C103.2,213.1,108.4,208.6,114.3,209z M87.1,168.8 c5.9,0.4,10.4,5.6,10,11.7c-0.4,5.9-5.6,10.4-11.7,10s-10.4-5.6-10-11.7C75.8,172.7,81,168.4,87.1,168.8z M70,221.6 c5.9,0.4,10.4,5.6,10,11.5c-0.4,6.1-5.9,10.4-11.7,10c-6.1-0.4-10.4-5.6-10-11.7C58.7,225.5,63.9,220.9,70,221.6z"></path> <path class="st0" d="M203.5,200.3c11.8-27.6,43-48.7,93.3-62.8c6.3-1.8,12.3-4.5,18.1-7.5c-5.2-12.2-12.6-23.3-22.4-32.2 c-17.7-16.2-40.3-24.2-63.7-22.4c-25.3,2.1-44.4,27-57.7,53.6c17.8,17.6,29.2,40.8,31.7,66.7C203.1,197,203.3,198.7,203.5,200.3z"></path> <g> <path class="st0" d="M86.8,316.3v19.4c0,23.9-11.5,36.9-35,36.9H40.7v56.1H17.2V279.4h34.6C75.2,279.4,86.8,292.4,86.8,316.3z M40.7,300.7v50.5h11.1c7.5,0,11.5-3.4,11.5-14.1v-22.4c0-10.7-4.1-14.1-11.5-14.1H40.7z"></path> <path class="st0" d="M170.8,428.7h-23.7l-4.1-27.1h-28.8l-4.1,27.1H88.7l23.9-149.3h34.3L170.8,428.7z M117.3,381.3h22.6 l-11.1-75.5h-0.4L117.3,381.3z"></path> <path class="st0" d="M166.8,279.4h72.5v21.3h-24.5v128h-23.5v-128h-24.5V279.4z"></path> <path class="st0" d="M317.3,428.7h-23.7l-4.1-27.1h-28.8l-4.1,27.1h-21.5l23.9-149.3h34.3L317.3,428.7z M263.8,381.3h22.6 l-11.1-75.5h-0.4L263.8,381.3z"></path> <path class="st1" d="M363.2,345.5H396v47.3c0,23.9-11.9,37.5-35,37.5c-23,0-35-13.6-35-37.5v-77.6c0-23.9,11.9-37.5,35-37.5 c23,0,35,13.6,35,37.5v14.5h-22.2v-16c0-10.7-4.7-14.7-12.2-14.7c-7.5,0-12.2,4.1-12.2,14.7v80.6c0,10.7,4.7,14.5,12.2,14.5 c7.5,0,12.2-3.8,12.2-14.5v-27.5h-10.7V345.5z"></path> <path class="st1" d="M409.3,315.2c0-23.9,12.6-37.5,35.6-37.5c23,0,35.6,13.6,35.6,37.5v77.6c0,23.9-12.6,37.5-35.6,37.5 c-23,0-35.6-13.6-35.6-37.5V315.2z M432.7,394.3c0,10.7,4.7,14.7,12.2,14.7c7.5,0,12.2-4.1,12.2-14.7v-80.6 c0-10.7-4.7-14.7-12.2-14.7c-7.5,0-12.2,4.1-12.2,14.7V394.3z"></path> </g> <path class="st2" d="M29.5,168.1c0,0-21.3,42.7-8.5,89.6c0,0,4.3,12.8,12.8,8.5s0-29.9,0-29.9S16.7,206.5,29.5,168.1z"></path> <path class="st3" d="M176.3,224c0,0-1.1-47.7-34.4-83.2c0,0-9.8-9.3-15.3-1.6c-5.5,7.8,14,26.4,14,26.4S169.6,184.1,176.3,224z"></path> </g> </svg> 